<svg width="77" height="84" viewBox="0 0 77 84" fill="none" xmlns="http://www.w3.org/2000/svg">
<path d="M39.9259 78.12C31.0709 84.5125 27.6345 84.484 20.6332 78.5898C19.9737 77.9151 19.2196 77.3396 18.3944 76.8813C-0.641661 69.065 -0.199623 52.6779 1.9963 36.7322C4.84815 15.9742 20.6759 4.89759 40.04 1.79387C42.5298 1.39177 45.0832 1.74382 47.3707 2.80459C49.6581 3.86536 51.5748 5.58619 52.8733 7.74505C43.4622 9.39658 33.2669 10.4359 23.4993 13.084C8.94056 17.0847 1.08371 35.4793 6.77315 50.7844C12.4626 66.0895 20.7472 78.305 39.9259 78.12Z" fill="white"/>
<path d="M49.8218 31.2081C45.3729 44.0217 45.3729 44.0217 51.3476 53.7315C43.8615 47.282 36.6178 47.6237 29.5594 53.5891C34.2222 45.9152 33.2811 38.4407 28.5185 31.2224L28.3759 31.379C35.6481 36.6325 42.7778 37.0169 49.9787 31.322L49.8218 31.2081Z" fill="white"/>
<path d="M23.7274 51.9092C19.1644 47.2109 18.2519 39.9498 21.3746 33.1444C23.0784 29.4992 25.8678 26.4681 29.3617 24.4652C32.8557 22.4623 36.8837 21.5853 40.8956 21.9539C43.7887 22.1317 46.6027 22.9683 49.122 24.3997C51.6413 25.831 53.799 27.8191 55.43 30.2116C57.061 32.6041 58.1219 35.3376 58.5314 38.2027C58.941 41.0678 58.6883 43.9885 57.7928 46.741C56.5522 40.377 57.9924 33.1444 49.8219 31.2082L49.9787 31.379C45.373 23.9329 34.8781 23.9329 28.433 31.379L28.5756 31.2224C21.6313 35.9207 20.3907 41.2881 23.7274 51.9092Z" fill="white"/>
<path d="M73.8344 53.5037C72.3087 43.2814 70.9826 34.7959 69.7991 26.4529C77.3707 33.4719 74.6615 42.7119 73.8344 53.5037Z" fill="white"/>
<path d="M61.7854 69.7627C60.5305 76.8813 56.923 80.0705 47.9396 77.6929L61.7854 69.7627Z" fill="white"/>
</svg>
